<svg width="195" height="8" viewBox="0 0 195 8" fill="none" xmlns="http://www.w3.org/2000/svg">
<g id="&#194;&#183;&#194;&#183;&#194;&#183;&#194;&#183;&#194;&#183;&#194;&#183;|&#194;&#183;&#194;&#183;&#194;&#183;&#194;&#183;&#194;&#183;&#194;&#183;&#194;&#183;&#194;&#183;I|I&#194;&#183;&#194;&#183;&#194;&#183;&#194;&#183;&#194;&#183;&#194;&#183;&#194;&#183;&#194;&#183;&#194;&#183;I|I&#194;&#183;&#194;&#183;I|I&#194;&#183;II&#194;&#183;II|I&#194;&#183;&#194;&#183;&#194;&#183;&#194;&#183;&#194;&#183;&#194;&#183;&#194;&#183;&#194;&#183;I&#194;&#183;&#194;&#183;&#194;&#183;&#194;&#183;I|I&#194;&#183;&#194;&#183;I|I&#194;&#183;&#194;&#183;&#194;&#183;&#194;&#183;&#194;&#183;&#194;&#183;&#194;&#183;&#194;&#183;&#194;&#183;I|I&#194;&#183;II&#194;&#183;II|I&#194;&#183;&#194;&#183;&#194;&#183;&#194;&#183;&#194;&#183;&#194;&#183;&#194;&#183;&#194;&#183;&#194;&#183;II|I&#194;&#183;&#194;&#183;I|I&#194;&#183;&#194;&#183;&#194;&#183;&#194;&#183;&#194;&#183;&#194;&#183;&#194;&#183;&#194;&#183;&#194;&#183;I&#194;&#183;&#194;&#183;&#194;&#183;&#194;&#183;&#194;&#183;&#194;&#183;&#194;&#183;&#194;&#183;&#194;&#183;">
<path id="Vector" d="M194.314 3.36922C194.314 3.22399 194.343 3.10193 194.401 3.00305C194.459 2.90108 194.544 2.8501 194.656 2.8501C194.768 2.8501 194.853 2.90108 194.911 3.00305C194.971 3.10193 195.001 3.22399 195.001 3.36922C195.001 3.51136 194.971 3.63187 194.911 3.73075C194.853 3.82654 194.768 3.87443 194.656 3.87443C194.544 3.87443 194.459 3.82654 194.401 3.73075C194.343 3.63187 194.314 3.51136 194.314 3.36922Z" fill="#858585"/>
<path id="Vector_2" d="M192.707 3.36922C192.707 3.22399 192.736 3.10193 192.794 3.00305C192.852 2.90108 192.937 2.8501 193.049 2.8501C193.161 2.8501 193.246 2.90108 193.304 3.00305C193.364 3.10193 193.393 3.22399 193.393 3.36922C193.393 3.51136 193.364 3.63187 193.304 3.73075C193.246 3.82654 193.161 3.87443 193.049 3.87443C192.937 3.87443 192.852 3.82654 192.794 3.73075C192.736 3.63187 192.707 3.51136 192.707 3.36922Z" fill="#858585"/>
<path id="Vector_3" d="M191.1 3.36922C191.1 3.22399 191.129 3.10193 191.187 3.00305C191.244 2.90108 191.329 2.8501 191.441 2.8501C191.553 2.8501 191.638 2.90108 191.696 3.00305C191.756 3.10193 191.786 3.22399 191.786 3.36922C191.786 3.51136 191.756 3.63187 191.696 3.73075C191.638 3.82654 191.553 3.87443 191.441 3.87443C191.329 3.87443 191.244 3.82654 191.187 3.73075C191.129 3.63187 191.1 3.51136 191.1 3.36922Z" fill="#858585"/>
<path id="Vector_4" d="M189.492 3.36922C189.492 3.22399 189.521 3.10193 189.579 3.00305C189.637 2.90108 189.722 2.8501 189.834 2.8501C189.946 2.8501 190.031 2.90108 190.089 3.00305C190.149 3.10193 190.179 3.22399 190.179 3.36922C190.179 3.51136 190.149 3.63187 190.089 3.73075C190.031 3.82654 189.946 3.87443 189.834 3.87443C189.722 3.87443 189.637 3.82654 189.579 3.73075C189.521 3.63187 189.492 3.51136 189.492 3.36922Z" fill="#858585"/>
<path id="Vector_5" d="M187.887 3.36922C187.887 3.22399 187.916 3.10193 187.974 3.00305C188.032 2.90108 188.117 2.8501 188.228 2.8501C188.34 2.8501 188.425 2.90108 188.483 3.00305C188.543 3.10193 188.573 3.22399 188.573 3.36922C188.573 3.51136 188.543 3.63187 188.483 3.73075C188.425 3.82654 188.34 3.87443 188.228 3.87443C188.117 3.87443 188.032 3.82654 187.974 3.73075C187.916 3.63187 187.887 3.51136 187.887 3.36922Z" fill="#858585"/>
<path id="Vector_6" d="M186.279 3.36922C186.279 3.22399 186.308 3.10193 186.366 3.00305C186.424 2.90108 186.509 2.8501 186.621 2.8501C186.733 2.8501 186.818 2.90108 186.876 3.00305C186.936 3.10193 186.966 3.22399 186.966 3.36922C186.966 3.51136 186.936 3.63187 186.876 3.73075C186.818 3.82654 186.733 3.87443 186.621 3.87443C186.509 3.87443 186.424 3.82654 186.366 3.73075C186.308 3.63187 186.279 3.51136 186.279 3.36922Z" fill="#858585"/>
<path id="Vector_7" d="M184.674 3.36922C184.674 3.22399 184.703 3.10193 184.761 3.00305C184.819 2.90108 184.904 2.8501 185.016 2.8501C185.127 2.8501 185.212 2.90108 185.27 3.00305C185.33 3.10193 185.36 3.22399 185.36 3.36922C185.36 3.51136 185.33 3.63187 185.27 3.73075C185.212 3.82654 185.127 3.87443 185.016 3.87443C184.904 3.87443 184.819 3.82654 184.761 3.73075C184.703 3.63187 184.674 3.51136 184.674 3.36922Z" fill="#858585"/>
<path id="Vector_8" d="M183.068 3.36922C183.068 3.22399 183.097 3.10193 183.155 3.00305C183.213 2.90108 183.298 2.8501 183.41 2.8501C183.522 2.8501 183.607 2.90108 183.665 3.00305C183.725 3.10193 183.755 3.22399 183.755 3.36922C183.755 3.51136 183.725 3.63187 183.665 3.73075C183.607 3.82654 183.522 3.87443 183.41 3.87443C183.298 3.87443 183.213 3.82654 183.155 3.73075C183.097 3.63187 183.068 3.51136 183.068 3.36922Z" fill="#858585"/>
<path id="Vector_9" d="M181.461 3.36922C181.461 3.22399 181.49 3.10193 181.548 3.00305C181.606 2.90108 181.691 2.8501 181.803 2.8501C181.915 2.8501 182 2.90108 182.057 3.00305C182.117 3.10193 182.147 3.22399 182.147 3.36922C182.147 3.51136 182.117 3.63187 182.057 3.73075C182 3.82654 181.915 3.87443 181.803 3.87443C181.691 3.87443 181.606 3.82654 181.548 3.73075C181.49 3.63187 181.461 3.51136 181.461 3.36922Z" fill="#858585"/>
<path id="Vector_10" d="M180.471 0V6.74855H179.893V0H180.471Z" fill="#858585"/>
<path id="Vector_11" d="M178.182 3.36922C178.182 3.22399 178.211 3.10193 178.269 3.00305C178.327 2.90108 178.411 2.8501 178.523 2.8501C178.635 2.8501 178.72 2.90108 178.778 3.00305C178.838 3.10193 178.868 3.22399 178.868 3.36922C178.868 3.51136 178.838 3.63187 178.778 3.73075C178.72 3.82654 178.635 3.87443 178.523 3.87443C178.411 3.87443 178.327 3.82654 178.269 3.73075C178.211 3.63187 178.182 3.51136 178.182 3.36922Z" fill="#858585"/>
<path id="Vector_12" d="M176.574 3.36922C176.574 3.22399 176.603 3.10193 176.661 3.00305C176.719 2.90108 176.804 2.8501 176.916 2.8501C177.028 2.8501 177.113 2.90108 177.171 3.00305C177.231 3.10193 177.261 3.22399 177.261 3.36922C177.261 3.51136 177.231 3.63187 177.171 3.73075C177.113 3.82654 177.028 3.87443 176.916 3.87443C176.804 3.87443 176.719 3.82654 176.661 3.73075C176.603 3.63187 176.574 3.51136 176.574 3.36922Z" fill="#858585"/>
<path id="Vector_13" d="M174.967 3.36922C174.967 3.22399 174.996 3.10193 175.054 3.00305C175.112 2.90108 175.197 2.8501 175.309 2.8501C175.42 2.8501 175.505 2.90108 175.563 3.00305C175.623 3.10193 175.653 3.22399 175.653 3.36922C175.653 3.51136 175.623 3.63187 175.563 3.73075C175.505 3.82654 175.42 3.87443 175.309 3.87443C175.197 3.87443 175.112 3.82654 175.054 3.73075C174.996 3.63187 174.967 3.51136 174.967 3.36922Z" fill="#858585"/>
<path id="Vector_14" d="M173.361 3.36922C173.361 3.22399 173.39 3.10193 173.448 3.00305C173.506 2.90108 173.591 2.8501 173.703 2.8501C173.815 2.8501 173.9 2.90108 173.958 3.00305C174.018 3.10193 174.048 3.22399 174.048 3.36922C174.048 3.51136 174.018 3.63187 173.958 3.73075C173.9 3.82654 173.815 3.87443 173.703 3.87443C173.591 3.87443 173.506 3.82654 173.448 3.73075C173.39 3.63187 173.361 3.51136 173.361 3.36922Z" fill="#858585"/>
<path id="Vector_15" d="M171.754 3.36922C171.754 3.22399 171.783 3.10193 171.841 3.00305C171.899 2.90108 171.984 2.8501 172.096 2.8501C172.208 2.8501 172.292 2.90108 172.35 3.00305C172.41 3.10193 172.44 3.22399 172.44 3.36922C172.44 3.51136 172.41 3.63187 172.35 3.73075C172.292 3.82654 172.208 3.87443 172.096 3.87443C171.984 3.87443 171.899 3.82654 171.841 3.73075C171.783 3.63187 171.754 3.51136 171.754 3.36922Z" fill="#858585"/>
<path id="Vector_16" d="M170.148 3.36922C170.148 3.22399 170.177 3.10193 170.235 3.00305C170.293 2.90108 170.378 2.8501 170.49 2.8501C170.602 2.8501 170.687 2.90108 170.745 3.00305C170.805 3.10193 170.835 3.22399 170.835 3.36922C170.835 3.51136 170.805 3.63187 170.745 3.73075C170.687 3.82654 170.602 3.87443 170.49 3.87443C170.378 3.87443 170.293 3.82654 170.235 3.73075C170.177 3.63187 170.148 3.51136 170.148 3.36922Z" fill="#858585"/>
<path id="Vector_17" d="M168.541 3.36922C168.541 3.22399 168.57 3.10193 168.628 3.00305C168.686 2.90108 168.771 2.8501 168.883 2.8501C168.995 2.8501 169.08 2.90108 169.138 3.00305C169.197 3.10193 169.227 3.22399 169.227 3.36922C169.227 3.51136 169.197 3.63187 169.138 3.73075C169.08 3.82654 168.995 3.87443 168.883 3.87443C168.771 3.87443 168.686 3.82654 168.628 3.73075C168.57 3.63187 168.541 3.51136 168.541 3.36922Z" fill="#858585"/>
<path id="Vector_18" d="M166.934 3.36922C166.934 3.22399 166.963 3.10193 167.021 3.00305C167.078 2.90108 167.163 2.8501 167.275 2.8501C167.387 2.8501 167.472 2.90108 167.53 3.00305C167.59 3.10193 167.62 3.22399 167.62 3.36922C167.62 3.51136 167.59 3.63187 167.53 3.73075C167.472 3.82654 167.387 3.87443 167.275 3.87443C167.163 3.87443 167.078 3.82654 167.021 3.73075C166.963 3.63187 166.934 3.51136 166.934 3.36922Z" fill="#858585"/>
<path id="Vector_19" d="M165.328 3.36922C165.328 3.22399 165.357 3.10193 165.415 3.00305C165.473 2.90108 165.558 2.8501 165.67 2.8501C165.782 2.8501 165.867 2.90108 165.925 3.00305C165.985 3.10193 166.015 3.22399 166.015 3.36922C166.015 3.51136 165.985 3.63187 165.925 3.73075C165.867 3.82654 165.782 3.87443 165.67 3.87443C165.558 3.87443 165.473 3.82654 165.415 3.73075C165.357 3.63187 165.328 3.51136 165.328 3.36922Z" fill="#858585"/>
<path id="Vector_20" d="M164.338 0V6.74855H163.76V0H164.338Z" fill="#858585"/>
<path id="Vector_21" d="M162.707 0V8H162.158V0H162.707Z" fill="#858585"/>
<path id="Vector_22" d="M161.096 0V6.74855H160.518V0H161.096Z" fill="#858585"/>
<path id="Vector_23" d="M158.805 3.36922C158.805 3.22399 158.834 3.10193 158.892 3.00305C158.95 2.90108 159.035 2.8501 159.146 2.8501C159.258 2.8501 159.343 2.90108 159.401 3.00305C159.461 3.10193 159.491 3.22399 159.491 3.36922C159.491 3.51136 159.461 3.63187 159.401 3.73075C159.343 3.82654 159.258 3.87443 159.146 3.87443C159.035 3.87443 158.95 3.82654 158.892 3.73075C158.834 3.63187 158.805 3.51136 158.805 3.36922Z" fill="#858585"/>
<path id="Vector_24" d="M157.199 3.36922C157.199 3.22399 157.228 3.10193 157.286 3.00305C157.344 2.90108 157.429 2.8501 157.541 2.8501C157.653 2.8501 157.738 2.90108 157.796 3.00305C157.856 3.10193 157.886 3.22399 157.886 3.36922C157.886 3.51136 157.856 3.63187 157.796 3.73075C157.738 3.82654 157.653 3.87443 157.541 3.87443C157.429 3.87443 157.344 3.82654 157.286 3.73075C157.228 3.63187 157.199 3.51136 157.199 3.36922Z" fill="#858585"/>
<path id="Vector_25" d="M156.209 0V6.74855H155.631V0H156.209Z" fill="#858585"/>
<path id="Vector_26" d="M154.578 0V8H154.029V0H154.578Z" fill="#858585"/>
<path id="Vector_27" d="M152.965 0V6.74855H152.387V0H152.965Z" fill="#858585"/>
<path id="Vector_28" d="M151.293 0V6.74855H150.715V0H151.293Z" fill="#858585"/>
<path id="Vector_29" d="M149.004 3.36922C149.004 3.22399 149.033 3.10193 149.091 3.00305C149.149 2.90108 149.234 2.8501 149.346 2.8501C149.458 2.8501 149.542 2.90108 149.6 3.00305C149.66 3.10193 149.69 3.22399 149.69 3.36922C149.69 3.51136 149.66 3.63187 149.6 3.73075C149.542 3.82654 149.458 3.87443 149.346 3.87443C149.234 3.87443 149.149 3.82654 149.091 3.73075C149.033 3.63187 149.004 3.51136 149.004 3.36922Z" fill="#858585"/>
<path id="Vector_30" d="M147.396 3.36922C147.396 3.22399 147.425 3.10193 147.483 3.00305C147.541 2.90108 147.626 2.8501 147.738 2.8501C147.85 2.8501 147.935 2.90108 147.993 3.00305C148.053 3.10193 148.083 3.22399 148.083 3.36922C148.083 3.51136 148.053 3.63187 147.993 3.73075C147.935 3.82654 147.85 3.87443 147.738 3.87443C147.626 3.87443 147.541 3.82654 147.483 3.73075C147.425 3.63187 147.396 3.51136 147.396 3.36922Z" fill="#858585"/>
<path id="Vector_31" d="M145.791 3.36922C145.791 3.22399 145.82 3.10193 145.878 3.00305C145.936 2.90108 146.021 2.8501 146.133 2.8501C146.245 2.8501 146.33 2.90108 146.388 3.00305C146.447 3.10193 146.477 3.22399 146.477 3.36922C146.477 3.51136 146.447 3.63187 146.388 3.73075C146.33 3.82654 146.245 3.87443 146.133 3.87443C146.021 3.87443 145.936 3.82654 145.878 3.73075C145.82 3.63187 145.791 3.51136 145.791 3.36922Z" fill="#858585"/>
<path id="Vector_32" d="M144.184 3.36922C144.184 3.22399 144.213 3.10193 144.271 3.00305C144.328 2.90108 144.413 2.8501 144.525 2.8501C144.637 2.8501 144.722 2.90108 144.78 3.00305C144.84 3.10193 144.87 3.22399 144.87 3.36922C144.87 3.51136 144.84 3.63187 144.78 3.73075C144.722 3.82654 144.637 3.87443 144.525 3.87443C144.413 3.87443 144.328 3.82654 144.271 3.73075C144.213 3.63187 144.184 3.51136 144.184 3.36922Z" fill="#858585"/>
<path id="Vector_33" d="M142.576 3.36922C142.576 3.22399 142.605 3.10193 142.663 3.00305C142.721 2.90108 142.806 2.8501 142.918 2.8501C143.03 2.8501 143.115 2.90108 143.173 3.00305C143.233 3.10193 143.263 3.22399 143.263 3.36922C143.263 3.51136 143.233 3.63187 143.173 3.73075C143.115 3.82654 143.03 3.87443 142.918 3.87443C142.806 3.87443 142.721 3.82654 142.663 3.73075C142.605 3.63187 142.576 3.51136 142.576 3.36922Z" fill="#858585"/>
<path id="Vector_34" d="M140.971 3.36922C140.971 3.22399 141 3.10193 141.058 3.00305C141.116 2.90108 141.201 2.8501 141.312 2.8501C141.424 2.8501 141.509 2.90108 141.567 3.00305C141.627 3.10193 141.657 3.22399 141.657 3.36922C141.657 3.51136 141.627 3.63187 141.567 3.73075C141.509 3.82654 141.424 3.87443 141.312 3.87443C141.201 3.87443 141.116 3.82654 141.058 3.73075C141 3.63187 140.971 3.51136 140.971 3.36922Z" fill="#858585"/>
<path id="Vector_35" d="M139.363 3.36922C139.363 3.22399 139.392 3.10193 139.45 3.00305C139.508 2.90108 139.593 2.8501 139.705 2.8501C139.817 2.8501 139.902 2.90108 139.96 3.00305C140.02 3.10193 140.05 3.22399 140.05 3.36922C140.05 3.51136 140.02 3.63187 139.96 3.73075C139.902 3.82654 139.817 3.87443 139.705 3.87443C139.593 3.87443 139.508 3.82654 139.45 3.73075C139.392 3.63187 139.363 3.51136 139.363 3.36922Z" fill="#858585"/>
<path id="Vector_36" d="M137.758 3.36922C137.758 3.22399 137.787 3.10193 137.845 3.00305C137.903 2.90108 137.988 2.8501 138.1 2.8501C138.211 2.8501 138.296 2.90108 138.354 3.00305C138.414 3.10193 138.444 3.22399 138.444 3.36922C138.444 3.51136 138.414 3.63187 138.354 3.73075C138.296 3.82654 138.211 3.87443 138.1 3.87443C137.988 3.87443 137.903 3.82654 137.845 3.73075C137.787 3.63187 137.758 3.51136 137.758 3.36922Z" fill="#858585"/>
<path id="Vector_37" d="M136.15 3.36922C136.15 3.22399 136.179 3.10193 136.237 3.00305C136.295 2.90108 136.38 2.8501 136.492 2.8501C136.604 2.8501 136.689 2.90108 136.747 3.00305C136.807 3.10193 136.837 3.22399 136.837 3.36922C136.837 3.51136 136.807 3.63187 136.747 3.73075C136.689 3.82654 136.604 3.87443 136.492 3.87443C136.38 3.87443 136.295 3.82654 136.237 3.73075C136.179 3.63187 136.15 3.51136 136.15 3.36922Z" fill="#858585"/>
<path id="Vector_38" d="M135.163 0V6.74855H134.584V0H135.163Z" fill="#858585"/>
<path id="Vector_39" d="M133.531 0V8H132.982V0H133.531Z" fill="#858585"/>
<path id="Vector_40" d="M131.918 0V6.74855H131.34V0H131.918Z" fill="#858585"/>
<path id="Vector_41" d="M130.245 0V6.74855H129.666V0H130.245Z" fill="#858585"/>
<path id="Vector_42" d="M127.955 3.36922C127.955 3.22399 127.984 3.10193 128.042 3.00305C128.1 2.90108 128.185 2.8501 128.297 2.8501C128.409 2.8501 128.494 2.90108 128.552 3.00305C128.612 3.10193 128.642 3.22399 128.642 3.36922C128.642 3.51136 128.612 3.63187 128.552 3.73075C128.494 3.82654 128.409 3.87443 128.297 3.87443C128.185 3.87443 128.1 3.82654 128.042 3.73075C127.984 3.63187 127.955 3.51136 127.955 3.36922Z" fill="#858585"/>
<path id="Vector_43" d="M126.967 0V6.74855H126.389V0H126.967Z" fill="#858585"/>
<path id="Vector_44" d="M125.293 0V6.74855H124.715V0H125.293Z" fill="#858585"/>
<path id="Vector_45" d="M123.004 3.36922C123.004 3.22399 123.033 3.10193 123.091 3.00305C123.149 2.90108 123.234 2.8501 123.346 2.8501C123.458 2.8501 123.542 2.90108 123.6 3.00305C123.66 3.10193 123.69 3.22399 123.69 3.36922C123.69 3.51136 123.66 3.63187 123.6 3.73075C123.542 3.82654 123.458 3.87443 123.346 3.87443C123.234 3.87443 123.149 3.82654 123.091 3.73075C123.033 3.63187 123.004 3.51136 123.004 3.36922Z" fill="#858585"/>
<path id="Vector_46" d="M122.016 0V6.74855H121.438V0H122.016Z" fill="#858585"/>
<path id="Vector_47" d="M120.383 0V8H119.834V0H120.383Z" fill="#858585"/>
<path id="Vector_48" d="M118.77 0V6.74855H118.191V0H118.77Z" fill="#858585"/>
<path id="Vector_49" d="M116.482 3.36922C116.482 3.22399 116.511 3.10193 116.569 3.00305C116.627 2.90108 116.712 2.8501 116.824 2.8501C116.936 2.8501 117.021 2.90108 117.079 3.00305C117.139 3.10193 117.169 3.22399 117.169 3.36922C117.169 3.51136 117.139 3.63187 117.079 3.73075C117.021 3.82654 116.936 3.87443 116.824 3.87443C116.712 3.87443 116.627 3.82654 116.569 3.73075C116.511 3.63187 116.482 3.51136 116.482 3.36922Z" fill="#858585"/>
<path id="Vector_50" d="M114.875 3.36922C114.875 3.22399 114.904 3.10193 114.962 3.00305C115.02 2.90108 115.105 2.8501 115.217 2.8501C115.329 2.8501 115.414 2.90108 115.472 3.00305C115.531 3.10193 115.561 3.22399 115.561 3.36922C115.561 3.51136 115.531 3.63187 115.472 3.73075C115.414 3.82654 115.329 3.87443 115.217 3.87443C115.105 3.87443 115.02 3.82654 114.962 3.73075C114.904 3.63187 114.875 3.51136 114.875 3.36922Z" fill="#858585"/>
<path id="Vector_51" d="M113.268 3.36922C113.268 3.22399 113.297 3.10193 113.355 3.00305C113.412 2.90108 113.497 2.8501 113.609 2.8501C113.721 2.8501 113.806 2.90108 113.864 3.00305C113.924 3.10193 113.954 3.22399 113.954 3.36922C113.954 3.51136 113.924 3.63187 113.864 3.73075C113.806 3.82654 113.721 3.87443 113.609 3.87443C113.497 3.87443 113.412 3.82654 113.355 3.73075C113.297 3.63187 113.268 3.51136 113.268 3.36922Z" fill="#858585"/>
<path id="Vector_52" d="M111.66 3.36922C111.66 3.22399 111.689 3.10193 111.747 3.00305C111.805 2.90108 111.89 2.8501 112.002 2.8501C112.114 2.8501 112.199 2.90108 112.257 3.00305C112.317 3.10193 112.347 3.22399 112.347 3.36922C112.347 3.51136 112.317 3.63187 112.257 3.73075C112.199 3.82654 112.114 3.87443 112.002 3.87443C111.89 3.87443 111.805 3.82654 111.747 3.73075C111.689 3.63187 111.66 3.51136 111.66 3.36922Z" fill="#858585"/>
<path id="Vector_53" d="M110.055 3.36922C110.055 3.22399 110.084 3.10193 110.142 3.00305C110.2 2.90108 110.285 2.8501 110.396 2.8501C110.508 2.8501 110.593 2.90108 110.651 3.00305C110.711 3.10193 110.741 3.22399 110.741 3.36922C110.741 3.51136 110.711 3.63187 110.651 3.73075C110.593 3.82654 110.508 3.87443 110.396 3.87443C110.285 3.87443 110.2 3.82654 110.142 3.73075C110.084 3.63187 110.055 3.51136 110.055 3.36922Z" fill="#858585"/>
<path id="Vector_54" d="M108.447 3.36922C108.447 3.22399 108.476 3.10193 108.534 3.00305C108.592 2.90108 108.677 2.8501 108.789 2.8501C108.901 2.8501 108.986 2.90108 109.044 3.00305C109.104 3.10193 109.134 3.22399 109.134 3.36922C109.134 3.51136 109.104 3.63187 109.044 3.73075C108.986 3.82654 108.901 3.87443 108.789 3.87443C108.677 3.87443 108.592 3.82654 108.534 3.73075C108.476 3.63187 108.447 3.51136 108.447 3.36922Z" fill="#858585"/>
<path id="Vector_55" d="M106.842 3.36922C106.842 3.22399 106.871 3.10193 106.929 3.00305C106.987 2.90108 107.072 2.8501 107.184 2.8501C107.295 2.8501 107.38 2.90108 107.438 3.00305C107.498 3.10193 107.528 3.22399 107.528 3.36922C107.528 3.51136 107.498 3.63187 107.438 3.73075C107.38 3.82654 107.295 3.87443 107.184 3.87443C107.072 3.87443 106.987 3.82654 106.929 3.73075C106.871 3.63187 106.842 3.51136 106.842 3.36922Z" fill="#858585"/>
<path id="Vector_56" d="M105.236 3.36922C105.236 3.22399 105.265 3.10193 105.323 3.00305C105.381 2.90108 105.466 2.8501 105.578 2.8501C105.69 2.8501 105.775 2.90108 105.833 3.00305C105.893 3.10193 105.923 3.22399 105.923 3.36922C105.923 3.51136 105.893 3.63187 105.833 3.73075C105.775 3.82654 105.69 3.87443 105.578 3.87443C105.466 3.87443 105.381 3.82654 105.323 3.73075C105.265 3.63187 105.236 3.51136 105.236 3.36922Z" fill="#858585"/>
<path id="Vector_57" d="M103.629 3.36922C103.629 3.22399 103.658 3.10193 103.716 3.00305C103.774 2.90108 103.859 2.8501 103.971 2.8501C104.083 2.8501 104.167 2.90108 104.225 3.00305C104.285 3.10193 104.315 3.22399 104.315 3.36922C104.315 3.51136 104.285 3.63187 104.225 3.73075C104.167 3.82654 104.083 3.87443 103.971 3.87443C103.859 3.87443 103.774 3.82654 103.716 3.73075C103.658 3.63187 103.629 3.51136 103.629 3.36922Z" fill="#858585"/>
<path id="Vector_58" d="M102.639 0V6.74855H102.061V0H102.639Z" fill="#858585"/>
<path id="Vector_59" d="M101.008 0V8H100.459V0H101.008Z" fill="#858585"/>
<path id="Vector_60" d="M99.3949 0V6.74855H98.8164V0H99.3949Z" fill="#858585"/>
<path id="Vector_61" d="M97.1055 3.36922C97.1055 3.22399 97.1344 3.10193 97.1924 3.00305C97.2504 2.90108 97.3353 2.8501 97.4472 2.8501C97.5591 2.8501 97.644 2.90108 97.702 3.00305C97.7619 3.10193 97.7919 3.22399 97.7919 3.36922C97.7919 3.51136 97.7619 3.63187 97.702 3.73075C97.644 3.82654 97.5591 3.87443 97.4472 3.87443C97.3353 3.87443 97.2504 3.82654 97.1924 3.73075C97.1344 3.63187 97.1055 3.51136 97.1055 3.36922Z" fill="#858585"/>
<path id="Vector_62" d="M95.498 3.36922C95.498 3.22399 95.527 3.10193 95.585 3.00305C95.6429 2.90108 95.7279 2.8501 95.8398 2.8501C95.9517 2.8501 96.0366 2.90108 96.0946 3.00305C96.1545 3.10193 96.1845 3.22399 96.1845 3.36922C96.1845 3.51136 96.1545 3.63187 96.0946 3.73075C96.0366 3.82654 95.9517 3.87443 95.8398 3.87443C95.7279 3.87443 95.6429 3.82654 95.585 3.73075C95.527 3.63187 95.498 3.51136 95.498 3.36922Z" fill="#858585"/>
<path id="Vector_63" d="M94.5102 0V6.74855H93.9316V0H94.5102Z" fill="#858585"/>
<path id="Vector_64" d="M92.8786 0V8H92.3301V0H92.8786Z" fill="#6B4EFF"/>
<path id="Vector_65" d="M91.266 0V6.74855H90.6875V0H91.266Z" fill="#6B4EFF"/>
<path id="Vector_66" d="M88.9766 3.36922C88.9766 3.22399 89.0055 3.10193 89.0635 3.00305C89.1214 2.90108 89.2064 2.8501 89.3183 2.8501C89.4302 2.8501 89.5151 2.90108 89.5731 3.00305C89.633 3.10193 89.663 3.22399 89.663 3.36922C89.663 3.51136 89.633 3.63187 89.5731 3.73075C89.5151 3.82654 89.4302 3.87443 89.3183 3.87443C89.2064 3.87443 89.1214 3.82654 89.0635 3.73075C89.0055 3.63187 88.9766 3.51136 88.9766 3.36922Z" fill="#6B4EFF"/>
<path id="Vector_67" d="M87.3691 3.36922C87.3691 3.22399 87.3981 3.10193 87.4561 3.00305C87.514 2.90108 87.599 2.8501 87.7109 2.8501C87.8228 2.8501 87.9077 2.90108 87.9657 3.00305C88.0256 3.10193 88.0556 3.22399 88.0556 3.36922C88.0556 3.51136 88.0256 3.63187 87.9657 3.73075C87.9077 3.82654 87.8228 3.87443 87.7109 3.87443C87.599 3.87443 87.514 3.82654 87.4561 3.73075C87.3981 3.63187 87.3691 3.51136 87.3691 3.36922Z" fill="#6B4EFF"/>
<path id="Vector_68" d="M85.7617 3.36922C85.7617 3.22399 85.7907 3.10193 85.8486 3.00305C85.9066 2.90108 85.9915 2.8501 86.1034 2.8501C86.2154 2.8501 86.3003 2.90108 86.3582 3.00305C86.4182 3.10193 86.4482 3.22399 86.4482 3.36922C86.4482 3.51136 86.4182 3.63187 86.3582 3.73075C86.3003 3.82654 86.2154 3.87443 86.1034 3.87443C85.9915 3.87443 85.9066 3.82654 85.8486 3.73075C85.7907 3.63187 85.7617 3.51136 85.7617 3.36922Z" fill="#6B4EFF"/>
<path id="Vector_69" d="M84.1562 3.36922C84.1562 3.22399 84.1852 3.10193 84.2432 3.00305C84.3011 2.90108 84.3861 2.8501 84.498 2.8501C84.6099 2.8501 84.6948 2.90108 84.7528 3.00305C84.8127 3.10193 84.8427 3.22399 84.8427 3.36922C84.8427 3.51136 84.8127 3.63187 84.7528 3.73075C84.6948 3.82654 84.6099 3.87443 84.498 3.87443C84.3861 3.87443 84.3011 3.82654 84.2432 3.73075C84.1852 3.63187 84.1562 3.51136 84.1562 3.36922Z" fill="#6B4EFF"/>
<path id="Vector_70" d="M83.1684 0V6.74855H82.5898V0H83.1684Z" fill="#6B4EFF"/>
<path id="Vector_71" d="M80.877 3.36922C80.877 3.22399 80.9059 3.10193 80.9639 3.00305C81.0218 2.90108 81.1068 2.8501 81.2187 2.8501C81.3306 2.8501 81.4155 2.90108 81.4735 3.00305C81.5334 3.10193 81.5634 3.22399 81.5634 3.36922C81.5634 3.51136 81.5334 3.63187 81.4735 3.73075C81.4155 3.82654 81.3306 3.87443 81.2187 3.87443C81.1068 3.87443 81.0218 3.82654 80.9639 3.73075C80.9059 3.63187 80.877 3.51136 80.877 3.36922Z" fill="#6B4EFF"/>
<path id="Vector_72" d="M79.2715 3.36922C79.2715 3.22399 79.3005 3.10193 79.3584 3.00305C79.4164 2.90108 79.5013 2.8501 79.6132 2.8501C79.7251 2.8501 79.8101 2.90108 79.868 3.00305C79.928 3.10193 79.9579 3.22399 79.9579 3.36922C79.9579 3.51136 79.928 3.63187 79.868 3.73075C79.8101 3.82654 79.7251 3.87443 79.6132 3.87443C79.5013 3.87443 79.4164 3.82654 79.3584 3.73075C79.3005 3.63187 79.2715 3.51136 79.2715 3.36922Z" fill="#6B4EFF"/>
<path id="Vector_73" d="M77.6641 3.36922C77.6641 3.22399 77.693 3.10193 77.751 3.00305C77.8089 2.90108 77.8939 2.8501 78.0058 2.8501C78.1177 2.8501 78.2026 2.90108 78.2606 3.00305C78.3205 3.10193 78.3505 3.22399 78.3505 3.36922C78.3505 3.51136 78.3205 3.63187 78.2606 3.73075C78.2026 3.82654 78.1177 3.87443 78.0058 3.87443C77.8939 3.87443 77.8089 3.82654 77.751 3.73075C77.693 3.63187 77.6641 3.51136 77.6641 3.36922Z" fill="#6B4EFF"/>
<path id="Vector_74" d="M76.0586 3.36922C76.0586 3.22399 76.0876 3.10193 76.1455 3.00305C76.2035 2.90108 76.2884 2.8501 76.4003 2.8501C76.5122 2.8501 76.5972 2.90108 76.6551 3.00305C76.7151 3.10193 76.745 3.22399 76.745 3.36922C76.745 3.51136 76.7151 3.63187 76.6551 3.73075C76.5972 3.82654 76.5122 3.87443 76.4003 3.87443C76.2884 3.87443 76.2035 3.82654 76.1455 3.73075C76.0876 3.63187 76.0586 3.51136 76.0586 3.36922Z" fill="#6B4EFF"/>
<path id="Vector_75" d="M74.4512 3.36922C74.4512 3.22399 74.4801 3.10193 74.5381 3.00305C74.5961 2.90108 74.681 2.8501 74.7929 2.8501C74.9048 2.8501 74.9897 2.90108 75.0477 3.00305C75.1077 3.10193 75.1376 3.22399 75.1376 3.36922C75.1376 3.51136 75.1077 3.63187 75.0477 3.73075C74.9897 3.82654 74.9048 3.87443 74.7929 3.87443C74.681 3.87443 74.5961 3.82654 74.5381 3.73075C74.4801 3.63187 74.4512 3.51136 74.4512 3.36922Z" fill="#6B4EFF"/>
<path id="Vector_76" d="M72.8438 3.36922C72.8438 3.22399 72.8727 3.10193 72.9307 3.00305C72.9886 2.90108 73.0736 2.8501 73.1855 2.8501C73.2974 2.8501 73.3823 2.90108 73.4403 3.00305C73.5002 3.10193 73.5302 3.22399 73.5302 3.36922C73.5302 3.51136 73.5002 3.63187 73.4403 3.73075C73.3823 3.82654 73.2974 3.87443 73.1855 3.87443C73.0736 3.87443 72.9886 3.82654 72.9307 3.73075C72.8727 3.63187 72.8438 3.51136 72.8438 3.36922Z" fill="#6B4EFF"/>
<path id="Vector_77" d="M71.2383 3.36922C71.2383 3.22399 71.2673 3.10193 71.3252 3.00305C71.3832 2.90108 71.4681 2.8501 71.58 2.8501C71.6919 2.8501 71.7769 2.90108 71.8348 3.00305C71.8948 3.10193 71.9247 3.22399 71.9247 3.36922C71.9247 3.51136 71.8948 3.63187 71.8348 3.73075C71.7769 3.82654 71.6919 3.87443 71.58 3.87443C71.4681 3.87443 71.3832 3.82654 71.3252 3.73075C71.2673 3.63187 71.2383 3.51136 71.2383 3.36922Z" fill="#6B4EFF"/>
<path id="Vector_78" d="M69.6309 3.36922C69.6309 3.22399 69.6598 3.10193 69.7178 3.00305C69.7757 2.90108 69.8607 2.8501 69.9726 2.8501C70.0845 2.8501 70.1694 2.90108 70.2274 3.00305C70.2873 3.10193 70.3173 3.22399 70.3173 3.36922C70.3173 3.51136 70.2873 3.63187 70.2274 3.73075C70.1694 3.82654 70.0845 3.87443 69.9726 3.87443C69.8607 3.87443 69.7757 3.82654 69.7178 3.73075C69.6598 3.63187 69.6309 3.51136 69.6309 3.36922Z" fill="#6B4EFF"/>
<path id="Vector_79" d="M68.641 0V6.74855H68.0625V0H68.641Z" fill="#6B4EFF"/>
<path id="Vector_80" d="M67.0115 0V8H66.4629V0H67.0115Z" fill="#6B4EFF"/>
<path id="Vector_81" d="M65.3989 0V6.74855H64.8203V0H65.3989Z" fill="#6B4EFF"/>
<path id="Vector_82" d="M63.725 0V6.74855H63.1465V0H63.725Z" fill="#6B4EFF"/>
<path id="Vector_83" d="M61.4355 3.36922C61.4355 3.22399 61.4645 3.10193 61.5225 3.00305C61.5804 2.90108 61.6654 2.8501 61.7773 2.8501C61.8892 2.8501 61.9741 2.90108 62.0321 3.00305C62.092 3.10193 62.122 3.22399 62.122 3.36922C62.122 3.51136 62.092 3.63187 62.0321 3.73075C61.9741 3.82654 61.8892 3.87443 61.7773 3.87443C61.6654 3.87443 61.5804 3.82654 61.5225 3.73075C61.4645 3.63187 61.4355 3.51136 61.4355 3.36922Z" fill="#6B4EFF"/>
<path id="Vector_84" d="M60.4477 0V6.74855H59.8691V0H60.4477Z" fill="#6B4EFF"/>
<path id="Vector_85" d="M58.7739 0V6.74855H58.1953V0H58.7739Z" fill="#6B4EFF"/>
<path id="Vector_86" d="M56.4844 3.36922C56.4844 3.22399 56.5134 3.10193 56.5713 3.00305C56.6293 2.90108 56.7142 2.8501 56.8261 2.8501C56.938 2.8501 57.0229 2.90108 57.0809 3.00305C57.1409 3.10193 57.1708 3.22399 57.1708 3.36922C57.1708 3.51136 57.1409 3.63187 57.0809 3.73075C57.0229 3.82654 56.938 3.87443 56.8261 3.87443C56.7142 3.87443 56.6293 3.82654 56.5713 3.73075C56.5134 3.63187 56.4844 3.51136 56.4844 3.36922Z" fill="#6B4EFF"/>
<path id="Vector_87" d="M55.4946 0V6.74855H54.916V0H55.4946Z" fill="#6B4EFF"/>
<path id="Vector_88" d="M53.865 0V8H53.3164V0H53.865Z" fill="#6B4EFF"/>
<path id="Vector_89" d="M52.2504 0V6.74855H51.6719V0H52.2504Z" fill="#6B4EFF"/>
<path id="Vector_90" d="M49.9609 3.36922C49.9609 3.22399 49.9899 3.10193 50.0479 3.00305C50.1058 2.90108 50.1908 2.8501 50.3027 2.8501C50.4146 2.8501 50.4995 2.90108 50.5575 3.00305C50.6174 3.10193 50.6474 3.22399 50.6474 3.36922C50.6474 3.51136 50.6174 3.63187 50.5575 3.73075C50.4995 3.82654 50.4146 3.87443 50.3027 3.87443C50.1908 3.87443 50.1058 3.82654 50.0479 3.73075C49.9899 3.63187 49.9609 3.51136 49.9609 3.36922Z" fill="#6B4EFF"/>
<path id="Vector_91" d="M48.3555 3.36922C48.3555 3.22399 48.3844 3.10193 48.4424 3.00305C48.5004 2.90108 48.5853 2.8501 48.6972 2.8501C48.8091 2.8501 48.894 2.90108 48.952 3.00305C49.0119 3.10193 49.0419 3.22399 49.0419 3.36922C49.0419 3.51136 49.0119 3.63187 48.952 3.73075C48.894 3.82654 48.8091 3.87443 48.6972 3.87443C48.5853 3.87443 48.5004 3.82654 48.4424 3.73075C48.3844 3.63187 48.3555 3.51136 48.3555 3.36922Z" fill="#6B4EFF"/>
<path id="Vector_92" d="M47.3657 0V6.74855H46.7871V0H47.3657Z" fill="#6B4EFF"/>
<path id="Vector_93" d="M45.7361 0V8H45.1875V0H45.7361Z" fill="#6B4EFF"/>
<path id="Vector_94" d="M44.1215 0V6.74855H43.543V0H44.1215Z" fill="#6B4EFF"/>
<path id="Vector_95" d="M41.832 3.36922C41.832 3.22399 41.861 3.10193 41.919 3.00305C41.9769 2.90108 42.0618 2.8501 42.1738 2.8501C42.2857 2.8501 42.3706 2.90108 42.4286 3.00305C42.4885 3.10193 42.5185 3.22399 42.5185 3.36922C42.5185 3.51136 42.4885 3.63187 42.4286 3.73075C42.3706 3.82654 42.2857 3.87443 42.1738 3.87443C42.0618 3.87443 41.9769 3.82654 41.919 3.73075C41.861 3.63187 41.832 3.51136 41.832 3.36922Z" fill="#6B4EFF"/>
<path id="Vector_96" d="M40.2266 3.36922C40.2266 3.22399 40.2555 3.10193 40.3135 3.00305C40.3714 2.90108 40.4564 2.8501 40.5683 2.8501C40.6802 2.8501 40.7651 2.90108 40.8231 3.00305C40.883 3.10193 40.913 3.22399 40.913 3.36922C40.913 3.51136 40.883 3.63187 40.8231 3.73075C40.7651 3.82654 40.6802 3.87443 40.5683 3.87443C40.4564 3.87443 40.3714 3.82654 40.3135 3.73075C40.2555 3.63187 40.2266 3.51136 40.2266 3.36922Z" fill="#6B4EFF"/>
<path id="Vector_97" d="M38.6191 3.36922C38.6191 3.22399 38.6481 3.10193 38.7061 3.00305C38.764 2.90108 38.849 2.8501 38.9609 2.8501C39.0728 2.8501 39.1577 2.90108 39.2157 3.00305C39.2756 3.10193 39.3056 3.22399 39.3056 3.36922C39.3056 3.51136 39.2756 3.63187 39.2157 3.73075C39.1577 3.82654 39.0728 3.87443 38.9609 3.87443C38.849 3.87443 38.764 3.82654 38.7061 3.73075C38.6481 3.63187 38.6191 3.51136 38.6191 3.36922Z" fill="#6B4EFF"/>
<path id="Vector_98" d="M37.0137 3.36922C37.0137 3.22399 37.0426 3.10193 37.1006 3.00305C37.1586 2.90108 37.2435 2.8501 37.3554 2.8501C37.4673 2.8501 37.5522 2.90108 37.6102 3.00305C37.6702 3.10193 37.7001 3.22399 37.7001 3.36922C37.7001 3.51136 37.6702 3.63187 37.6102 3.73075C37.5522 3.82654 37.4673 3.87443 37.3554 3.87443C37.2435 3.87443 37.1586 3.82654 37.1006 3.73075C37.0426 3.63187 37.0137 3.51136 37.0137 3.36922Z" fill="#6B4EFF"/>
<path id="Vector_99" d="M35.4062 3.36922C35.4062 3.22399 35.4352 3.10193 35.4932 3.00305C35.5511 2.90108 35.6361 2.8501 35.748 2.8501C35.8599 2.8501 35.9448 2.90108 36.0028 3.00305C36.0627 3.10193 36.0927 3.22399 36.0927 3.36922C36.0927 3.51136 36.0627 3.63187 36.0028 3.73075C35.9448 3.82654 35.8599 3.87443 35.748 3.87443C35.6361 3.87443 35.5511 3.82654 35.4932 3.73075C35.4352 3.63187 35.4062 3.51136 35.4062 3.36922Z" fill="#6B4EFF"/>
<path id="Vector_100" d="M33.7988 3.36922C33.7988 3.22399 33.8278 3.10193 33.8858 3.00305C33.9437 2.90108 34.0286 2.8501 34.1406 2.8501C34.2525 2.8501 34.3374 2.90108 34.3954 3.00305C34.4553 3.10193 34.4853 3.22399 34.4853 3.36922C34.4853 3.51136 34.4553 3.63187 34.3954 3.73075C34.3374 3.82654 34.2525 3.87443 34.1406 3.87443C34.0286 3.87443 33.9437 3.82654 33.8858 3.73075C33.8278 3.63187 33.7988 3.51136 33.7988 3.36922Z" fill="#6B4EFF"/>
<path id="Vector_101" d="M32.1934 3.36922C32.1934 3.22399 32.2223 3.10193 32.2803 3.00305C32.3382 2.90108 32.4232 2.8501 32.5351 2.8501C32.647 2.8501 32.7319 2.90108 32.7899 3.00305C32.8498 3.10193 32.8798 3.22399 32.8798 3.36922C32.8798 3.51136 32.8498 3.63187 32.7899 3.73075C32.7319 3.82654 32.647 3.87443 32.5351 3.87443C32.4232 3.87443 32.3382 3.82654 32.2803 3.73075C32.2223 3.63187 32.1934 3.51136 32.1934 3.36922Z" fill="#6B4EFF"/>
<path id="Vector_102" d="M30.5859 3.36922C30.5859 3.22399 30.6149 3.10193 30.6729 3.00305C30.7308 2.90108 30.8158 2.8501 30.9277 2.8501C31.0396 2.8501 31.1245 2.90108 31.1825 3.00305C31.2424 3.10193 31.2724 3.22399 31.2724 3.36922C31.2724 3.51136 31.2424 3.63187 31.1825 3.73075C31.1245 3.82654 31.0396 3.87443 30.9277 3.87443C30.8158 3.87443 30.7308 3.82654 30.6729 3.73075C30.6149 3.63187 30.5859 3.51136 30.5859 3.36922Z" fill="#6B4EFF"/>
<path id="Vector_103" d="M28.9805 3.36922C28.9805 3.22399 29.0094 3.10193 29.0674 3.00305C29.1254 2.90108 29.2103 2.8501 29.3222 2.8501C29.4341 2.8501 29.519 2.90108 29.577 3.00305C29.6369 3.10193 29.6669 3.22399 29.6669 3.36922C29.6669 3.51136 29.6369 3.63187 29.577 3.73075C29.519 3.82654 29.4341 3.87443 29.3222 3.87443C29.2103 3.87443 29.1254 3.82654 29.0674 3.73075C29.0094 3.63187 28.9805 3.51136 28.9805 3.36922Z" fill="#6B4EFF"/>
<path id="Vector_104" d="M27.9907 0V6.74855H27.4121V0H27.9907Z" fill="#6B4EFF"/>
<path id="Vector_105" d="M26.3591 0V8H25.8105V0H26.3591Z" fill="#6B4EFF"/>
<path id="Vector_106" d="M24.7465 0V6.74855H24.168V0H24.7465Z" fill="#6B4EFF"/>
<path id="Vector_107" d="M22.457 3.36922C22.457 3.22399 22.486 3.10193 22.544 3.00305C22.6019 2.90108 22.6868 2.8501 22.7988 2.8501C22.9107 2.8501 22.9956 2.90108 23.0536 3.00305C23.1135 3.10193 23.1435 3.22399 23.1435 3.36922C23.1435 3.51136 23.1135 3.63187 23.0536 3.73075C22.9956 3.82654 22.9107 3.87443 22.7988 3.87443C22.6868 3.87443 22.6019 3.82654 22.544 3.73075C22.486 3.63187 22.457 3.51136 22.457 3.36922Z" fill="#6B4EFF"/>
<path id="Vector_108" d="M20.8516 3.36922C20.8516 3.22399 20.8805 3.10193 20.9385 3.00305C20.9964 2.90108 21.0814 2.8501 21.1933 2.8501C21.3052 2.8501 21.3901 2.90108 21.4481 3.00305C21.508 3.10193 21.538 3.22399 21.538 3.36922C21.538 3.51136 21.508 3.63187 21.4481 3.73075C21.3901 3.82654 21.3052 3.87443 21.1933 3.87443C21.0814 3.87443 20.9964 3.82654 20.9385 3.73075C20.8805 3.63187 20.8516 3.51136 20.8516 3.36922Z" fill="#6B4EFF"/>
<path id="Vector_109" d="M19.2441 3.36922C19.2441 3.22399 19.2731 3.10193 19.3311 3.00305C19.389 2.90108 19.474 2.8501 19.5859 2.8501C19.6978 2.8501 19.7827 2.90108 19.8407 3.00305C19.9006 3.10193 19.9306 3.22399 19.9306 3.36922C19.9306 3.51136 19.9006 3.63187 19.8407 3.73075C19.7827 3.82654 19.6978 3.87443 19.5859 3.87443C19.474 3.87443 19.389 3.82654 19.3311 3.73075C19.2731 3.63187 19.2441 3.51136 19.2441 3.36922Z" fill="#6B4EFF"/>
<path id="Vector_110" d="M17.6367 3.36922C17.6367 3.22399 17.6657 3.10193 17.7236 3.00305C17.7816 2.90108 17.8665 2.8501 17.9784 2.8501C18.0904 2.8501 18.1753 2.90108 18.2332 3.00305C18.2932 3.10193 18.3232 3.22399 18.3232 3.36922C18.3232 3.51136 18.2932 3.63187 18.2332 3.73075C18.1753 3.82654 18.0904 3.87443 17.9784 3.87443C17.8665 3.87443 17.7816 3.82654 17.7236 3.73075C17.6657 3.63187 17.6367 3.51136 17.6367 3.36922Z" fill="#6B4EFF"/>
<path id="Vector_111" d="M16.0312 3.36922C16.0312 3.22399 16.0602 3.10193 16.1182 3.00305C16.1761 2.90108 16.2611 2.8501 16.373 2.8501C16.4849 2.8501 16.5698 2.90108 16.6278 3.00305C16.6877 3.10193 16.7177 3.22399 16.7177 3.36922C16.7177 3.51136 16.6877 3.63187 16.6278 3.73075C16.5698 3.82654 16.4849 3.87443 16.373 3.87443C16.2611 3.87443 16.1761 3.82654 16.1182 3.73075C16.0602 3.63187 16.0312 3.51136 16.0312 3.36922Z" fill="#6B4EFF"/>
<path id="Vector_112" d="M14.4238 3.36922C14.4238 3.22399 14.4528 3.10193 14.5108 3.00305C14.5687 2.90108 14.6536 2.8501 14.7656 2.8501C14.8775 2.8501 14.9624 2.90108 15.0204 3.00305C15.0803 3.10193 15.1103 3.22399 15.1103 3.36922C15.1103 3.51136 15.0803 3.63187 15.0204 3.73075C14.9624 3.82654 14.8775 3.87443 14.7656 3.87443C14.6536 3.87443 14.5687 3.82654 14.5108 3.73075C14.4528 3.63187 14.4238 3.51136 14.4238 3.36922Z" fill="#6B4EFF"/>
<path id="Vector_113" d="M12.8164 3.36922C12.8164 3.22399 12.8454 3.10193 12.9033 3.00305C12.9613 2.90108 13.0462 2.8501 13.1581 2.8501C13.27 2.8501 13.355 2.90108 13.4129 3.00305C13.4729 3.10193 13.5029 3.22399 13.5029 3.36922C13.5029 3.51136 13.4729 3.63187 13.4129 3.73075C13.355 3.82654 13.27 3.87443 13.1581 3.87443C13.0462 3.87443 12.9613 3.82654 12.9033 3.73075C12.8454 3.63187 12.8164 3.51136 12.8164 3.36922Z" fill="#6B4EFF"/>
<path id="Vector_114" d="M11.2109 3.36922C11.2109 3.22399 11.2399 3.10193 11.2979 3.00305C11.3558 2.90108 11.4408 2.8501 11.5527 2.8501C11.6646 2.8501 11.7495 2.90108 11.8075 3.00305C11.8674 3.10193 11.8974 3.22399 11.8974 3.36922C11.8974 3.51136 11.8674 3.63187 11.8075 3.73075C11.7495 3.82654 11.6646 3.87443 11.5527 3.87443C11.4408 3.87443 11.3558 3.82654 11.2979 3.73075C11.2399 3.63187 11.2109 3.51136 11.2109 3.36922Z" fill="#6B4EFF"/>
<path id="Vector_115" d="M10.2634 0V8H9.71484V0H10.2634Z" fill="#6B4EFF"/>
<path id="Vector_116" d="M8.0332 3.36922C8.0332 3.22399 8.06218 3.10193 8.12013 3.00305C8.17809 2.90108 8.26302 2.8501 8.37493 2.8501C8.48684 2.8501 8.57178 2.90108 8.62973 3.00305C8.68968 3.10193 8.71966 3.22399 8.71966 3.36922C8.71966 3.51136 8.68968 3.63187 8.62973 3.73075C8.57178 3.82654 8.48684 3.87443 8.37493 3.87443C8.26302 3.87443 8.17809 3.82654 8.12013 3.73075C8.06218 3.63187 8.0332 3.51136 8.0332 3.36922Z" fill="#6B4EFF"/>
<path id="Vector_117" d="M6.42773 3.36922C6.42773 3.22399 6.45671 3.10193 6.51467 3.00305C6.57262 2.90108 6.65755 2.8501 6.76946 2.8501C6.88137 2.8501 6.96631 2.90108 7.02426 3.00305C7.08421 3.10193 7.11419 3.22399 7.11419 3.36922C7.11419 3.51136 7.08421 3.63187 7.02426 3.73075C6.96631 3.82654 6.88137 3.87443 6.76946 3.87443C6.65755 3.87443 6.57262 3.82654 6.51467 3.73075C6.45671 3.63187 6.42773 3.51136 6.42773 3.36922Z" fill="#6B4EFF"/>
<path id="Vector_118" d="M4.82031 3.36922C4.82031 3.22399 4.84929 3.10193 4.90724 3.00305C4.9652 2.90108 5.05013 2.8501 5.16204 2.8501C5.27395 2.8501 5.35889 2.90108 5.41684 3.00305C5.47679 3.10193 5.50677 3.22399 5.50677 3.36922C5.50677 3.51136 5.47679 3.63187 5.41684 3.73075C5.35889 3.82654 5.27395 3.87443 5.16204 3.87443C5.05013 3.87443 4.9652 3.82654 4.90724 3.73075C4.84929 3.63187 4.82031 3.51136 4.82031 3.36922Z" fill="#6B4EFF"/>
<path id="Vector_119" d="M3.21289 3.36922C3.21289 3.22399 3.24187 3.10193 3.29982 3.00305C3.35778 2.90108 3.44271 2.8501 3.55462 2.8501C3.66653 2.8501 3.75146 2.90108 3.80942 3.00305C3.86937 3.10193 3.89935 3.22399 3.89935 3.36922C3.89935 3.51136 3.86937 3.63187 3.80942 3.73075C3.75146 3.82654 3.66653 3.87443 3.55462 3.87443C3.44271 3.87443 3.35778 3.82654 3.29982 3.73075C3.24187 3.63187 3.21289 3.51136 3.21289 3.36922Z" fill="#6B4EFF"/>
<path id="Vector_120" d="M1.60547 3.36922C1.60547 3.22399 1.63445 3.10193 1.6924 3.00305C1.75035 2.90108 1.83529 2.8501 1.9472 2.8501C2.05911 2.8501 2.14404 2.90108 2.202 3.00305C2.26195 3.10193 2.29192 3.22399 2.29192 3.36922C2.29192 3.51136 2.26195 3.63187 2.202 3.73075C2.14404 3.82654 2.05911 3.87443 1.9472 3.87443C1.83529 3.87443 1.75035 3.82654 1.6924 3.73075C1.63445 3.63187 1.60547 3.51136 1.60547 3.36922Z" fill="#6B4EFF"/>
<path id="Vector_121" d="M0 3.36922C0 3.22399 0.028977 3.10193 0.0869311 3.00305C0.144885 2.90108 0.229818 2.8501 0.341729 2.8501C0.453641 2.8501 0.538573 2.90108 0.596527 3.00305C0.65648 3.10193 0.686456 3.22399 0.686456 3.36922C0.686456 3.51136 0.65648 3.63187 0.596527 3.73075C0.538573 3.82654 0.453641 3.87443 0.341729 3.87443C0.229818 3.87443 0.144885 3.82654 0.0869311 3.73075C0.028977 3.63187 0 3.51136 0 3.36922Z" fill="#6B4EFF"/>
</g>
</svg>
