<svg width="34" height="34" viewBox="0 0 34 34" fill="none" xmlns="http://www.w3.org/2000/svg">
<g id="play">
<path id="Icon" d="M7.08301 7.0688C7.08301 5.69299 7.08301 5.00508 7.36987 4.62588C7.61977 4.29553 8.00175 4.0911 8.41524 4.06641C8.88988 4.03807 9.46225 4.41965 10.607 5.18282L25.504 15.1142C26.4499 15.7448 26.9229 16.0601 27.0877 16.4575C27.2318 16.8049 27.2318 17.1954 27.0877 17.5428C26.9229 17.9403 26.4499 18.2555 25.504 18.8861L10.607 28.8175C9.46225 29.5807 8.88988 29.9622 8.41524 29.9339C8.00175 29.9092 7.61977 29.7048 7.36987 29.3744C7.08301 28.9952 7.08301 28.3073 7.08301 26.9315V7.0688Z" stroke="black" stroke-width="2" stroke-linecap="round" stroke-linejoin="round"/>
</g>
</svg>
