<svg width="89" height="65" viewBox="0 0 89 65" fill="none" xmlns="http://www.w3.org/2000/svg">
<g id="g98">
<path id="path112" fill-rule="evenodd" clip-rule="evenodd" d="M2.25912 63.8817L2.21734 58.0162L2.17681 52.2599L3.07106 52.2608C3.32154 52.2608 3.45304 52.0559 3.45304 51.8558C3.45304 51.7498 3.41814 51.6509 3.35617 51.5765C3.28306 51.4863 3.17664 51.4384 3.05847 51.4384C2.17486 51.422 1.28834 51.422 0.409934 51.4384C0.258494 51.4384 0.129895 51.5106 0.0582319 51.6353C-0.0187267 51.7673 -0.0193694 51.9393 0.0560944 52.0715C0.125451 52.1909 0.247988 52.2598 0.407927 52.2598H1.35675C1.37396 56.0688 1.39019 60.0045 1.42324 63.8834C1.42324 64.1444 1.63349 64.2812 1.84088 64.2812C2.04839 64.2812 2.25912 64.1446 2.25912 63.8817Z" fill="#00704A"/>
<path id="path114" fill-rule="evenodd" clip-rule="evenodd" d="M6.24823 57.9191L6.28155 63.8828C6.28155 64.086 6.39729 64.2293 6.60694 64.2825C6.8745 64.335 7.12775 64.3613 7.36067 64.3613C7.81414 64.3613 8.20338 64.2603 8.51762 64.0639C9.05381 63.7277 9.32619 63.0811 9.22848 62.3746C9.09378 61.5078 8.39501 61.031 7.26066 61.031L7.09931 61.0336L7.05147 54.6887L7.1775 54.6904C8.38458 54.6904 9.13252 54.1559 9.22947 53.2264C9.31108 52.5512 9.04219 51.9543 8.52646 51.6703C8.20056 51.4968 7.79698 51.4159 7.25596 51.4159C7.05195 51.4159 6.84981 51.4269 6.66591 51.4378C6.37294 51.4378 6.21484 51.6549 6.21484 51.8578L6.24823 57.9191ZM7.10836 62.6741L7.10063 61.8539L7.28705 61.8484C7.93752 61.8484 8.30105 62.0439 8.39744 62.4398C8.48046 62.8403 8.35422 63.1868 8.06099 63.3648C7.82712 63.5071 7.50485 63.5624 7.11673 63.5274L7.10836 62.6741ZM8.41209 53.1281C8.34197 53.7894 7.60992 53.8887 7.0505 53.8675V52.2539L7.2326 52.2517C7.55256 52.2517 7.79804 52.2837 8.00423 52.3528C8.38227 52.4795 8.43434 52.8461 8.41209 53.1281Z" fill="#00704A"/>
<path id="path116" fill-rule="evenodd" clip-rule="evenodd" d="M12.1895 57.2185C12.1895 58.4071 12.2167 59.7038 12.2729 61.1829L12.2771 61.2866C12.3085 62.0995 12.3474 63.1089 12.9014 63.7997C13.1495 64.1112 13.5048 64.29 13.8763 64.29C13.9555 64.29 14.0356 64.2818 14.1107 64.2672C14.6622 64.1745 15.1013 63.7151 15.3482 62.9729L15.3553 62.9335C15.5433 62.2503 15.5546 61.507 15.5658 60.7869L15.5713 60.4792C15.5824 59.9861 15.5788 59.48 15.5751 58.9903L15.5713 58.2563L15.5794 57.5766C15.5979 56.2202 15.6169 54.8185 15.4873 53.4664C15.4404 52.8978 15.2058 51.5624 14.0516 51.4381L13.8937 51.4309C13.0665 51.4309 12.4799 52.1261 12.3236 53.2956C12.27 53.7786 12.2592 54.2747 12.2481 54.7568L12.2397 55.1242C12.2059 55.8351 12.1895 56.5196 12.1895 57.2185ZM13.1086 61.0378C13.019 58.8498 12.9509 56.2697 13.1249 53.7366C13.1557 53.1844 13.2958 52.2569 13.8934 52.2569C13.9407 52.2569 13.9917 52.2632 14.0415 52.2732C14.5995 52.4018 14.6558 53.335 14.686 53.8357C14.7571 55.0774 14.755 56.3424 14.7529 57.5658L14.7525 58.1838C14.7441 58.545 14.744 58.9041 14.744 59.2631C14.744 59.6177 14.7441 59.9722 14.7355 60.3258L14.7363 60.5932C14.7398 61.3225 14.7429 62.0765 14.5417 62.7406C14.4371 63.0858 14.2116 63.456 13.8936 63.456L13.8044 63.4477C13.6366 63.4278 13.5059 63.288 13.3818 62.9978C13.1424 62.388 13.1249 61.7063 13.1086 61.0378Z" fill="#00704A"/>
<path id="path118" fill-rule="evenodd" clip-rule="evenodd" d="M19.5915 58.4835L19.594 59.1062L19.5957 59.6382C19.5983 60.3317 19.6008 61.0498 19.5611 61.7524L19.5594 61.7856C19.5273 62.2622 19.4916 62.8013 19.2805 63.1945C19.1939 63.3406 19.1189 63.412 19.0197 63.4377C18.9677 63.4553 18.9195 63.4645 18.8758 63.4645C18.6223 63.4645 18.541 63.1467 18.5333 62.9649C18.5333 62.4248 17.6975 62.4191 17.6973 62.9695C17.719 63.5591 17.9654 63.9919 18.3905 64.1892C18.5363 64.257 18.704 64.2939 18.8762 64.2939C19.0638 64.2939 19.2516 64.2516 19.4196 64.1727C19.9277 63.9374 20.148 63.3744 20.2436 62.9445C20.4136 62.1942 20.4136 61.4053 20.4136 60.6437C20.4216 60.0927 20.4217 59.5415 20.4217 58.9895C20.4217 58.4382 20.4216 57.8881 20.4298 57.34C20.4459 56.8456 20.4621 56.3343 20.5449 55.8353C20.609 55.4156 20.7003 54.984 20.9227 54.6578C21.0723 54.6752 21.2198 54.6808 21.3592 54.6818C21.3749 57.6946 21.3919 60.8063 21.4251 63.8833C21.4251 64.4061 22.2435 64.4068 22.2435 63.8824L22.2104 57.8691L22.1776 51.8573C22.1776 51.5957 21.9654 51.4383 21.7672 51.4383C21.5989 51.4294 21.4246 51.421 21.2484 51.421C20.8778 51.421 20.3307 51.4522 19.863 51.7234C19.3579 52.01 19.1151 52.5572 19.1963 53.2285C19.2704 53.7806 19.5755 54.1885 20.1034 54.4429C19.799 55.0141 19.7067 55.6976 19.6449 56.3045C19.5794 57.0261 19.5857 57.7671 19.5915 58.4835ZM21.3579 53.8671L21.2812 53.8688C20.9353 53.8688 20.1201 53.7953 20.0287 53.1221C19.9923 52.8896 20.0296 52.7125 20.142 52.5801C20.3265 52.3634 20.7144 52.2578 21.3276 52.2578H21.3419L21.3498 53.0496L21.3579 53.8671Z" fill="#00704A"/>
<path id="path120" fill-rule="evenodd" clip-rule="evenodd" d="M25.748 57.5898C25.7867 57.8315 25.8163 58.0757 25.8662 58.3162C25.9594 58.771 26.2429 59.0557 26.6789 59.1962C27.1601 59.3524 27.6369 59.2716 28.1031 59.146C28.253 59.1052 28.3985 58.9832 28.5061 58.8647C29.1753 58.1151 29.1124 57.0387 28.3695 56.3644C28.1339 56.1497 27.8515 56.0669 27.5355 56.0945C27.4488 56.1025 27.362 56.1174 27.2758 56.1136C26.4013 56.0826 25.7676 56.7007 25.748 57.5898Z" fill="#00704A"/>
<path id="path122" fill-rule="evenodd" clip-rule="evenodd" d="M32.0915 55.109C32.0276 56.9228 32.039 58.8326 32.1251 60.7815L32.1338 61.0922C32.1567 62.015 32.184 63.166 32.8635 63.8778C33.1275 64.1433 33.5032 64.2949 33.8947 64.2949C34.2032 64.2949 34.5075 64.2003 34.7524 64.0258C35.3271 63.6032 35.6063 62.8243 35.6063 61.6448C35.6063 61.105 34.7871 61.1095 34.7871 61.6403C34.7729 62.1325 34.7488 62.9586 34.3054 63.3258C34.0404 63.5389 33.6125 63.4967 33.4144 63.2311C33.0032 62.7075 32.9758 61.8508 32.9541 61.1628L32.9437 60.8715C32.8994 59.5184 32.8589 57.9159 32.8943 56.2864C32.9104 55.5229 32.9413 54.7727 32.9748 53.9798L32.979 53.8955C33.0102 53.473 33.0458 52.9926 33.2421 52.6436C33.3664 52.4287 33.626 52.2734 33.8593 52.2734C34.0012 52.2734 34.1152 52.3293 34.1984 52.4387C34.4817 52.8228 34.4588 53.4768 34.4413 53.9543L34.4384 54.0563C34.4328 54.1718 34.4684 54.273 34.5419 54.3493C34.7468 54.565 35.2547 54.4881 35.2739 54.0654C35.2923 53.3975 35.2835 52.695 34.9728 52.1071C34.7357 51.6966 34.3079 51.4524 33.829 51.4524C33.6727 51.4524 33.5167 51.4788 33.3676 51.5275C32.144 51.917 32.1198 53.5457 32.1038 54.6238L32.0915 55.109Z" fill="#00704A"/>
<path id="path124" fill-rule="evenodd" clip-rule="evenodd" d="M38.614 51.8575C38.5975 55.8044 38.5646 59.8164 38.5321 63.6981L38.5312 63.8834C38.5312 64.407 39.3668 64.4062 39.3664 63.8834L39.3752 62.7907L39.3834 61.7003C39.8518 60.2883 40.3309 58.7802 40.8712 57.0102L40.8273 63.8834C40.8273 64.1444 41.0346 64.2812 41.2385 64.2812C41.4404 64.2812 41.6505 64.147 41.6632 63.8834L41.6957 57.8712L41.7295 51.8575C41.7291 51.322 40.9179 51.3091 40.8941 51.8575V54.0251C40.4164 55.6611 39.9076 57.3069 39.4056 58.92L39.4495 51.8575C39.4499 51.3174 38.6144 51.3182 38.614 51.8575Z" fill="#00704A"/>
<path id="path126" fill-rule="evenodd" clip-rule="evenodd" d="M46.5852 56.7805C46.5681 57.7422 46.5513 58.7377 46.4858 59.7142C46.417 60.6933 46.3341 61.6467 46.076 62.5371L46.0389 62.6525C45.952 62.9279 45.8217 63.3451 45.5734 63.4389C45.2526 63.5636 45.0039 63.2533 44.9917 62.9649C44.9917 62.6975 44.7768 62.5536 44.5748 62.5536C44.4591 62.5536 44.3498 62.5976 44.2762 62.6764C44.2029 62.7526 44.1674 62.8547 44.1723 62.9649C44.1723 63.5259 44.4377 63.967 44.9005 64.1727C45.0747 64.2515 45.265 64.2949 45.4504 64.2949C45.7138 64.2949 45.9574 64.2121 46.1555 64.055C46.5188 63.7638 46.6945 63.3192 46.8326 62.9198C46.9812 62.4265 47.0917 61.8626 47.17 61.1948C47.4397 59.1539 47.4227 57.0513 47.4065 55.018L47.4043 54.6938L47.3836 53.8523C47.3704 53.3253 47.3568 52.7814 47.3548 52.2431H48.1665L48.1991 58.005L48.2324 63.8495C48.2324 64.3896 49.0679 64.3896 49.0679 63.8473L49.0262 57.8365L48.9852 51.8232C48.9852 51.7109 48.943 51.6092 48.8625 51.5273C48.7907 51.4566 48.6941 51.4216 48.572 51.4216C48.0362 51.4043 47.4804 51.4043 46.9368 51.4216C46.8846 51.4216 46.7553 51.4292 46.6889 51.4989C46.5759 51.5843 46.519 51.693 46.519 51.8232C46.519 52.6525 46.5354 53.4893 46.5523 54.2983C46.5683 55.1059 46.5852 55.9428 46.5852 56.7805Z" fill="#00704A"/>
<path id="path128" fill-rule="evenodd" clip-rule="evenodd" d="M53.3428 51.8438C53.0302 54.8593 52.7408 57.9242 52.4607 60.8902L52.178 63.8697C52.167 63.9808 52.1977 64.0801 52.2662 64.1554C52.4597 64.3686 52.9737 64.3015 53.013 63.8926C53.0595 63.2682 53.1209 62.6326 53.183 62.0135C53.5872 62.0144 53.9998 62.0157 54.4028 62.027C54.4672 62.6528 54.5276 63.2688 54.574 63.8963C54.5983 64.1499 54.8149 64.2812 55.0156 64.2812C55.1368 64.2812 55.2476 64.2362 55.3203 64.1554C55.3891 64.0801 55.4186 63.9808 55.409 63.8697L55.1252 60.8772C54.8461 57.9168 54.5563 54.8556 54.2437 51.8456C54.2237 51.6105 54.0489 51.4531 53.8088 51.4531C53.6014 51.4531 53.3676 51.5902 53.3428 51.8438ZM53.7934 55.6499L53.9998 57.8075L54.3267 61.1922L54.025 61.1888L53.5643 61.1854L53.26 61.188L53.5862 57.8078L53.7934 55.6499Z" fill="#00704A"/>
<path id="path130" fill-rule="evenodd" clip-rule="evenodd" d="M60.5375 56.1136C59.6636 56.0826 59.0289 56.7007 59.0098 57.5898C59.0484 57.8315 59.0785 58.0757 59.1274 58.3162C59.2211 58.771 59.5049 59.0557 59.9407 59.1962C60.4218 59.3524 60.8985 59.2716 61.3655 59.146C61.5151 59.1052 61.6603 58.9832 61.767 58.8647C62.4369 58.1151 62.3747 57.0387 61.6316 56.3644C61.3951 56.1497 61.1133 56.0669 60.7979 56.0945C60.7105 56.1025 60.6242 56.1174 60.5375 56.1136Z" fill="#00704A"/>
<path id="path132" fill-rule="evenodd" clip-rule="evenodd" d="M67.0921 53.5619C67.0986 54.9663 67.106 56.4193 67.0702 57.8496L67.057 58.3885C67.0196 60.0354 66.9628 62.51 66.1781 63.4634H65.6403C65.3984 63.4634 65.2227 63.6398 65.2227 63.8923C65.2395 64.1193 65.2395 64.3488 65.2227 64.6006C65.2218 65.1203 66.0336 65.1333 66.0586 64.6006V64.2866C67.2866 64.3029 68.5147 64.3176 69.7433 64.3041C69.7475 64.3948 69.7433 64.4941 69.7324 64.6006C69.7324 64.8622 69.9427 65 70.1502 65C70.3574 65 70.5675 64.8622 70.5675 64.6006V63.8831C70.5675 63.6398 70.3916 63.4634 70.1502 63.4634H69.5524L69.5202 57.7264L69.4856 51.8572C69.4856 51.623 69.3027 51.4381 69.073 51.4381C68.5541 51.4217 68.0317 51.4217 67.504 51.4381C67.2621 51.4381 67.0861 51.6146 67.0861 51.8572L67.0921 53.5619ZM67.6878 61.2442C67.9228 59.331 67.9228 57.3654 67.9228 55.465V52.2595H68.6517L68.6918 57.8173L68.7329 63.4634H67.182L67.2295 63.3532L67.2985 63.1934C67.5329 62.5237 67.6296 61.799 67.6878 61.2442Z" fill="#00704A"/>
<path id="path134" fill-rule="evenodd" clip-rule="evenodd" d="M73.6277 56.3L73.6636 56.6097C73.8186 57.9503 73.9799 59.3355 74.4157 60.6161C74.5042 60.8998 74.6477 61.359 74.9672 61.5684C74.9306 62.0139 74.8787 62.3979 74.8097 62.7433L74.8043 62.7782C74.7816 62.9355 74.7092 63.4155 74.5376 63.4689C74.4634 63.4919 74.4108 63.4829 74.3644 63.4331C74.2768 63.3404 74.2361 63.1254 74.2461 62.9702C74.2505 62.8545 74.2153 62.7525 74.1426 62.6763C73.9367 62.4613 73.4292 62.5403 73.4101 62.9584C73.3923 63.3395 73.5345 63.7378 73.7825 63.999C73.9776 64.2047 74.2209 64.313 74.4842 64.313C74.6062 64.313 74.7318 64.29 74.8551 64.2431C75.5532 63.9944 75.6434 62.9902 75.7034 62.3254L75.7263 62.094C75.9281 60.2101 76.1079 58.2004 76.309 55.5732C76.3919 54.338 76.4938 53.0834 76.5923 51.8699C76.6056 51.7223 76.5493 51.6258 76.4992 51.5716C76.3013 51.353 75.7922 51.4358 75.774 51.8453C75.6088 53.6353 75.474 55.4723 75.3443 57.2487L75.3413 57.29L75.2649 58.1906C75.2137 58.7992 75.161 59.4285 75.0957 60.0431C74.9541 59.5341 74.8591 59.0104 74.7762 58.5145C74.5442 57.1774 74.3989 55.815 74.2577 54.4961L74.1951 53.9154L74.1365 53.2643C74.0952 52.7978 74.0531 52.3145 73.9955 51.8453C73.959 51.4329 73.4638 51.3557 73.2696 51.5687C73.2201 51.6239 73.164 51.7204 73.1779 51.8709L73.3222 53.3635C73.413 54.3271 73.5063 55.3244 73.6277 56.3Z" fill="#00704A"/>
<path id="path136" fill-rule="evenodd" clip-rule="evenodd" d="M79.653 51.9495L80.6969 57.5359L79.5528 63.7745C79.529 63.9021 79.5592 64.025 79.6393 64.1216C79.7233 64.2243 79.853 64.2852 79.9842 64.2852C80.1715 64.2852 80.3146 64.1637 80.3502 63.9757L81.1206 59.7983L81.2674 60.635C81.4915 61.7988 81.6957 62.9266 81.8825 63.9757C81.9184 64.1637 82.0627 64.2852 82.2483 64.2852C82.3809 64.2852 82.5101 64.2243 82.5941 64.1216C82.6744 64.025 82.7038 63.9021 82.6806 63.7773C82.4369 62.3839 82.1733 60.9676 81.9184 59.598L81.5369 57.5369L81.7709 56.2941L82.0153 55.0056C82.1939 54.0115 82.3771 52.9838 82.5805 51.9495C82.6038 51.8237 82.5741 51.7024 82.4946 51.606C82.4095 51.504 82.2731 51.4386 82.1378 51.4386C81.9477 51.4386 81.8017 51.5609 81.7662 51.7494L81.3791 53.8509L81.1182 55.2709L81.0326 54.8044C80.8308 53.7708 80.6459 52.7431 80.4673 51.7494C80.4315 51.5609 80.2853 51.4386 80.0954 51.4386C79.9602 51.4386 79.8237 51.504 79.7387 51.606C79.6594 51.7024 79.6289 51.8237 79.653 51.9495Z" fill="#00704A"/>
<path id="path138" fill-rule="evenodd" clip-rule="evenodd" d="M86.806 51.8438C86.4928 54.8556 86.2036 57.9168 85.9243 60.8772L85.6405 63.8697C85.6306 63.9808 85.6605 64.0801 85.7302 64.1554C85.9221 64.3686 86.4366 64.3015 86.4756 63.8926C86.522 63.2682 86.5849 62.6315 86.6459 62.0135C87.05 62.0144 87.4634 62.0157 87.866 62.027C87.9301 62.6528 87.9908 63.2688 88.037 63.8963C88.0607 64.1499 88.2779 64.2812 88.4791 64.2812C88.6 64.2812 88.7102 64.2362 88.7831 64.1554C88.8522 64.0801 88.8818 63.9808 88.8714 63.8697L88.5875 60.8772C88.3082 57.9168 88.0194 54.8546 87.7068 51.8456C87.6863 51.6105 87.5117 51.4531 87.2717 51.4531C87.0646 51.4531 86.8315 51.5902 86.806 51.8438ZM87.2564 55.6499L87.4634 57.8075L87.7903 61.1922L87.4886 61.1888L87.0277 61.1854L86.7233 61.188L87.0494 57.8078L87.2564 55.6499Z" fill="#00704A"/>
<g id="Group 6930">
<path id="path100" fill-rule="evenodd" clip-rule="evenodd" d="M9.98881 29.3211C9.89503 23.9896 9.95892 18.6642 10.3026 13.341C10.4031 11.7795 10.3128 10.2016 10.2603 8.63378C10.2273 7.65238 9.72249 7.23414 8.72361 7.24495C7.51764 7.25785 6.34357 7.45404 5.2038 7.85903C4.10084 8.25103 3.08646 8.7818 2.3129 9.69054C1.23352 10.9586 0.881355 12.4884 0.840314 14.0948C0.788851 16.1079 1.49634 17.891 2.66289 19.4987C3.32738 20.4136 4.25625 20.8755 5.37352 20.9288C6.03997 20.9597 6.70953 20.9342 7.43761 20.9342C7.43761 21.0639 7.44017 21.2239 7.43761 21.3827C7.36765 25.2068 7.29318 29.0297 7.23339 32.8534C7.22639 33.3127 7.06657 33.6711 6.73328 33.9654C6.42591 34.2377 6.11732 34.5086 5.805 34.7756C4.85288 35.5909 3.88061 36.3841 3.09134 37.3724C1.79039 38.9992 1.01404 40.8748 0.502922 42.8742C0.339738 43.5117 0.208156 44.1593 0.0818706 44.8058C-0.0547928 45.5057 0.123384 45.8036 0.795896 45.9844C1.10582 46.0689 1.42857 46.1213 1.74887 46.1451C2.18325 46.1791 2.52704 45.9844 2.7492 45.6095C2.88078 45.3872 2.98914 45.1485 3.08963 44.9116C3.4412 44.0757 3.78452 43.2344 4.1322 42.3966C4.76725 40.8628 5.55063 39.4289 6.8558 38.3507C6.94515 38.2765 7.0582 38.2322 7.16027 38.1745C7.20601 38.2965 7.29065 38.4167 7.2921 38.5399C7.30432 39.6659 7.29638 40.7937 7.30638 41.92C7.31415 42.8074 7.30423 43.6974 7.36727 44.5819C7.43436 45.5334 8.02667 46.0286 8.98003 46.0241C9.59612 46.0202 9.92335 45.7712 9.99864 45.1678C10.0869 44.4596 10.1823 43.7451 10.1753 43.0341C10.1292 38.4629 10.0686 33.8913 9.98881 29.3211ZM6.55084 18.1325C5.08713 17.7729 3.99963 16.96 3.46152 15.502C3.16842 14.7088 3.29505 13.9716 3.76248 13.2825C4.49624 12.2025 5.52291 11.4851 6.67046 10.9174C6.87964 10.814 7.09356 10.7201 7.33943 10.6054V18.2423C7.06901 18.2061 6.80362 18.1947 6.55084 18.1325Z" fill="#F05C59"/>
<path id="path102" fill-rule="evenodd" clip-rule="evenodd" d="M14.2386 23.9362C14.2116 28.7562 14.0766 33.5756 13.9897 38.3951C13.9621 39.9335 13.9209 41.472 13.9141 43.0105C13.9098 43.9418 14.1795 44.7428 15.1327 45.1405C16.2448 45.606 17.0288 45.114 17.0827 43.9106L17.0895 43.715L17.1406 35.1684C17.141 35.0442 17.1406 34.9198 17.1406 34.7954C17.202 34.7954 17.2249 34.789 17.2435 34.7963C17.6101 34.9232 17.9739 35.0574 18.3424 35.1784C20.3888 35.8538 21.8823 37.181 22.9394 39.0483C23.6994 40.3892 24.183 41.821 24.4653 43.3322C24.689 44.5287 25.4824 45.2103 26.5718 45.1718C27.2936 45.1471 27.6759 44.6915 27.5232 43.9933C27.0939 42.035 26.3368 40.201 25.365 38.4567C23.604 35.2963 21.0902 33.0291 17.604 31.9293C17.2583 31.8196 17.0743 31.5513 17.0645 31.1343C16.9801 27.6692 16.9025 24.2044 16.8147 20.7382C16.8033 20.2753 16.9884 19.9731 17.4223 19.82C17.5345 19.7806 17.6423 19.7312 17.7528 19.6887C20.2792 18.7266 22.0266 17.0094 22.9419 14.4287C23.5057 12.8405 23.8644 11.2138 24.1442 9.55804C24.2973 8.65569 23.9449 8.03384 23.2584 7.52203C22.4146 6.89238 21.5085 7.26968 21.3586 8.31744C21.319 8.59615 21.2892 8.87952 21.2099 9.14709C20.7751 10.6067 20.3278 12.0628 19.8822 13.5187C19.3934 15.1138 18.2651 16.1922 16.9124 17.206C16.9124 16.9968 16.912 16.8698 16.9124 16.7427C16.9225 14.1531 16.9388 11.5642 16.9393 8.97516C16.9395 7.74925 16.238 7.07125 15.0218 7.08193C14.5549 7.0863 14.3072 7.26153 14.239 7.72653C14.1771 8.1518 14.1606 8.58826 14.1628 9.0194C14.1882 13.9915 14.2665 18.9638 14.2386 23.9362Z" fill="#00704A"/>
<path id="path104" fill-rule="evenodd" clip-rule="evenodd" d="M35.5277 24.1969L32.0089 41.9435C31.8767 42.6125 31.7688 43.2849 31.6649 43.9569C31.567 44.5916 31.7898 44.9499 32.4069 45.1299C32.6843 45.2105 32.9768 45.2567 33.2644 45.2762C33.6818 45.3036 34.0007 45.117 34.1635 44.7204C34.2909 44.4117 34.4249 44.0993 34.4972 43.7752C34.8399 42.2357 35.1895 40.6974 35.4868 39.1494C36.3563 34.6164 37.2115 30.0802 38.0542 25.5427C38.9427 20.7604 39.8172 15.9754 40.6828 11.1889C40.8397 10.3176 40.9354 9.43436 41.0363 8.55391C41.0772 8.20666 40.9814 7.8646 40.6791 7.66C40.1111 7.27528 39.4749 7.186 38.8289 7.41065C38.257 7.60968 38.0817 8.1142 37.9985 8.66339C37.5476 11.6462 37.0962 14.6294 36.6381 17.6115C36.6249 17.6969 36.5466 17.803 36.4707 17.8368C36.42 17.8603 36.2977 17.7918 36.245 17.731C35.9317 17.3736 35.636 17.0001 35.3212 16.6433C34.2239 15.3978 33.3468 14.024 32.8232 12.4349C32.4089 11.1771 32.1934 9.87862 31.9962 8.57325C31.8182 7.38986 31.5343 7.16692 30.3367 7.14745C29.4313 7.13215 29.097 7.44648 29.1994 8.28634C29.3675 9.66112 29.5902 11.0258 30.0388 12.3436C30.9237 14.9469 32.0992 17.3887 33.9853 19.4265C34.4616 19.9416 34.9877 20.4095 35.4878 20.9029C35.8776 21.2875 36.0318 21.7487 35.917 22.2937C35.7843 22.9274 35.6533 23.5611 35.5277 24.1969Z" fill="#008080"/>
<path id="path106" fill-rule="evenodd" clip-rule="evenodd" d="M50.7432 24.7713C50.8267 30.1654 50.8562 35.5598 50.9092 40.9543C50.9181 41.9177 50.907 42.8832 50.9417 43.8457C50.9627 44.4456 51.2686 44.7447 51.8671 44.7488C53.2809 44.7598 53.742 44.4105 53.7199 43.0236C53.6903 41.117 53.637 39.2118 53.5842 37.3061C53.468 33.2133 53.3147 29.1213 53.2384 25.0273C53.1666 21.2267 53.1736 17.4236 53.1448 13.621C53.1344 12.2999 53.1141 10.9784 53.106 9.65656C53.1026 9.00539 53.2583 8.87029 53.8956 8.91427C54.3799 8.94852 54.8649 8.98439 55.3495 8.99751C56.5508 9.02691 57.7407 8.90963 58.9121 8.63842C59.2353 8.56358 59.6066 8.17672 59.6198 7.86684C59.6342 7.50476 59.3347 7.36455 59.0799 7.20513C59.0429 7.18301 59.0033 7.16196 58.9621 7.15421C58.2545 7.02008 57.5462 6.7769 56.8375 6.77497C52.8562 6.76027 48.875 6.79916 44.8937 6.83234C44.0647 6.83975 43.7801 7.14971 43.7421 7.9828C43.7204 8.44305 43.8826 8.68887 44.331 8.76868C44.8283 8.85703 45.3334 8.94173 45.8367 8.95095C47.2287 8.97718 48.6211 8.96274 50.0133 8.9642L50.3577 8.96446C50.3812 9.33053 50.4123 9.64344 50.4192 9.95691C50.5317 14.895 50.6662 19.833 50.7432 24.7713Z" fill="#EA6D26"/>
<path id="path108" fill-rule="evenodd" clip-rule="evenodd" d="M63.0045 27.6268C63.0096 29.8023 63.0828 31.9786 63.1267 34.1535C63.1506 35.3244 63.1745 36.4929 62.936 37.6495C62.8868 37.8911 62.8258 38.1415 62.8427 38.3833C62.9692 40.1755 63.1432 41.9665 63.2395 43.7603C63.2781 44.4793 63.6309 44.9204 64.1768 45.2823C64.4812 45.4823 64.7843 45.4807 65.0788 45.2612C65.5198 44.9351 65.8967 44.5631 66.0597 44.01C66.1233 43.7935 66.2333 43.5913 66.3381 43.3902L71.1056 34.2869C71.2909 33.9324 71.4727 33.5759 71.6709 33.2286C71.7602 33.0724 71.8842 32.9371 71.9932 32.7922L72.0966 32.8366C72.1039 32.9597 72.117 33.0826 72.1179 33.2056C72.1306 35.6214 72.1119 38.0379 72.1676 40.4528C72.1969 41.7598 72.3303 43.0659 72.4596 44.3692C72.5372 45.1481 73.168 45.6173 73.9614 45.5717C74.6238 45.533 75.093 45.0041 75.1117 44.2436C75.1225 43.7897 75.1336 43.3295 75.0831 42.8804C74.7903 40.2637 74.6404 37.6404 74.6035 35.006C74.4819 26.1027 74.3364 17.2005 74.1973 8.2979C74.1935 8.07161 74.1791 7.84099 74.1275 7.62182C74.0171 7.15557 73.7943 6.75204 73.2749 6.67004C72.2013 6.49896 71.4712 6.8625 71.4602 8.02973C71.4589 8.15935 71.4602 8.29009 71.4727 8.41963C71.7477 11.4621 71.894 14.5111 71.9251 17.5664C71.9544 20.4257 71.9971 23.2853 72.0541 26.1443C72.0725 27.0354 71.8702 27.8509 71.4551 28.6339C69.8027 31.7572 68.1634 34.8875 66.5154 38.0142C66.4007 38.2308 66.2569 38.4339 66.127 38.6434L66.0433 38.6259C65.9986 38.1645 65.9258 37.7054 65.9156 37.2446C65.8718 35.2303 65.8475 33.2159 65.8123 31.2012L65.3968 8.06994C65.3774 7.01099 65.3258 6.96053 64.2767 6.9172C63.1762 6.87197 63.0049 7.02363 63.0045 8.12776C62.9985 14.6277 62.9882 21.1274 63.0045 27.6268Z" fill="#F05C59"/>
<path id="path110" fill-rule="evenodd" clip-rule="evenodd" d="M85.5939 21.5767C85.5303 25.0424 85.4659 28.5085 85.396 31.9736C85.3632 33.6038 85.341 33.5837 84.1162 34.6482C83.1957 35.4483 82.2618 36.2482 81.448 37.1512C80.0072 38.7485 79.2107 40.7037 78.6828 42.7696C78.4852 43.542 78.3365 44.3301 78.2295 45.1203C78.1656 45.5885 78.3887 45.8467 78.8487 45.9742C79.1263 46.0507 79.4186 46.0856 79.7069 46.1148C80.4683 46.1967 80.7768 46.0195 81.0728 45.3166C81.3413 44.681 81.5824 44.0317 81.8519 43.3943C82.635 41.5399 83.3862 39.6625 85.0101 38.335C85.0189 38.3286 85.0238 38.3175 85.0329 38.3122L85.292 38.1559C85.3424 38.2541 85.4327 38.3499 85.4384 38.45C85.4617 38.9147 85.4677 39.3805 85.4698 39.846C85.4745 41.3305 85.461 42.8148 85.482 44.299C85.4987 45.4637 86.1027 46.0479 87.2014 46.022C87.7487 46.0083 88.057 45.7786 88.1264 45.2231C88.223 44.4515 88.3265 43.6734 88.3196 42.8965C88.267 37.3735 88.1913 31.849 88.1133 26.3252C88.0559 22.2616 88.1566 18.2034 88.4274 14.1478C88.5533 12.2564 88.579 10.3603 88.3882 8.46841C88.3137 7.72127 87.9361 7.30838 87.1963 7.27019C86.1234 7.21433 85.0685 7.34894 84.0332 7.64934C82.8824 7.98228 81.7908 8.4282 80.8908 9.2486C79.5632 10.4597 79.12 12.0561 79.006 13.7707C78.8752 15.7248 79.4959 17.4704 80.5331 19.1018C81.3611 20.4028 82.5236 20.9948 84.0432 20.9459C84.5261 20.9302 85.0101 20.9437 85.5614 20.9437C85.5711 21.1278 85.5969 21.3529 85.5939 21.5767ZM85.5137 18.1966C84.585 18.2524 83.7773 17.9562 83.0902 17.4107C82.6166 17.0357 82.165 16.5859 81.8356 16.0827C81.1075 14.9728 81.3162 13.75 82.3489 12.7815C82.7799 12.3779 83.2677 12.0322 83.7444 11.6821C84.1444 11.3892 84.5616 11.1185 84.9832 10.8578C85.1273 10.7688 85.3092 10.7407 85.5137 10.6712V18.1966Z" fill="#00704A"/>
<path id="path140" fill-rule="evenodd" clip-rule="evenodd" d="M86.229 4.98966C87.3376 5.65115 88.9569 4.7335 88.9863 3.42691C88.9876 3.3624 88.9817 3.29762 88.9825 3.23251C88.9837 3.12483 88.9838 3.01634 88.993 2.90918C89.0503 2.20177 88.7629 1.59775 88.3792 1.04693C88.1325 0.693937 87.7311 0.559686 87.2968 0.561872C87.1789 0.563158 87.0608 0.573398 86.9001 0.580814C86.1496 0.461005 85.5786 0.775514 85.2058 1.47585L85.1877 1.50285C84.5822 2.34464 84.6851 3.77844 85.439 4.50021C85.6577 4.70982 85.9627 4.82998 86.229 4.98966Z" fill="#00704A"/>
<path id="path142" fill-rule="evenodd" clip-rule="evenodd" d="M73.8924 4.14542C74.8392 4.02934 75.411 3.1963 75.1723 2.27066L75.0516 1.76613C74.9133 1.12375 74.4342 0.686311 73.7832 0.58995C73.5845 0.560544 73.386 0.507226 73.1986 0.43564C72.5712 0.196151 71.8817 0.374384 71.4909 0.915731C71.1215 1.42729 70.7486 1.94368 70.8479 2.55764C70.6573 3.71089 71.5582 4.52684 72.5512 4.34531C72.9958 4.26386 73.4432 4.20067 73.8924 4.14542Z" fill="#F05C59"/>
<path id="path144" fill-rule="evenodd" clip-rule="evenodd" d="M65.6756 3.89104C66.1126 3.55021 66.1912 3.03783 66.1635 2.54681L66.1793 2.34826C66.2454 1.32137 65.4965 0.623104 64.4756 0.737298C64.2335 0.764303 63.9798 0.742994 63.7378 0.703901C62.8053 0.551642 61.6555 1.2558 61.4091 2.17024C61.3195 2.50172 61.2683 2.85034 61.2516 3.19348C61.2155 3.96746 61.8111 4.62009 62.5802 4.67731C62.9557 4.70505 63.3319 4.7155 63.7074 4.74027C64.5083 4.79398 65.0989 4.34185 65.6756 3.89104Z" fill="#F05C59"/>
<path id="path146" fill-rule="evenodd" clip-rule="evenodd" d="M53.9795 3.46876C54.2393 3.1402 54.3473 2.76513 54.2897 2.34457C54.2707 2.20608 54.253 2.06581 54.2487 1.92684C54.2232 0.994263 53.171 -0.0294466 52.2444 0.000816822C51.9115 0.0113616 51.5779 0.0552645 51.252 0.12012C50.4732 0.274693 49.6715 1.52657 49.7985 2.36609C49.837 2.62209 49.8761 2.87898 49.9225 3.13416C50.0511 3.84375 50.6908 4.35617 51.4046 4.32213L52.2078 4.27947C52.6962 4.31265 53.6758 3.85382 53.9795 3.46876Z" fill="#EA6D26"/>
<path id="path148" fill-rule="evenodd" clip-rule="evenodd" d="M43.5598 3.14531C43.7206 2.76574 43.7539 2.33232 43.8174 2.03402C43.8071 1.17813 42.9882 0.203511 42.2434 0.0491953C42.1392 0.0275483 42.0305 0.0140791 41.9237 0.0119786C41.286 0.0013051 40.6887 0.0745683 40.0991 0.403861C39.3674 0.81224 38.7455 1.95018 38.9405 2.77363L38.9944 2.95954C39.0495 3.13452 39.1104 3.3079 39.1592 3.48472C39.4128 4.40671 40.3856 4.84198 41.2402 4.41692C41.3537 4.36068 41.4777 4.32591 41.5989 4.28725C42.0482 4.14609 42.5258 4.06165 42.9385 3.84912C43.2015 3.71474 43.443 3.42346 43.5598 3.14531Z" fill="#008080"/>
<path id="path150" fill-rule="evenodd" clip-rule="evenodd" d="M16.7869 4.16626C17.6978 3.14876 17.6128 1.68263 16.6021 0.765999C16.2807 0.474985 15.8968 0.360887 15.467 0.398566C15.3491 0.409239 15.231 0.430243 15.1139 0.426128C13.9239 0.382749 13.0615 1.22458 13.0352 2.43223C13.0878 2.76199 13.128 3.09458 13.1954 3.42169C13.3231 4.03976 13.7086 4.42714 14.3018 4.61939C14.9566 4.83067 15.6052 4.72231 16.24 4.54892C16.4432 4.49349 16.6414 4.33017 16.7869 4.16626Z" fill="#00704A"/>
<path id="path152" fill-rule="evenodd" clip-rule="evenodd" d="M10.7894 2.22744C10.8372 1.40824 10.4583 0.895355 9.68265 0.608842C9.20894 0.433866 8.74262 0.360012 8.23863 0.342137C7.46204 0.315903 6.93073 0.5899 6.61777 1.30738C6.57455 1.40666 6.52723 1.50508 6.47457 1.59831C5.89204 2.63741 6.74875 4.48461 7.92136 4.71583C8.4643 4.82351 9.94667 4.33526 10.3107 3.92041C10.6861 3.49223 10.8648 2.99722 10.7762 2.43962L10.7894 2.22744Z" fill="#F05C59"/>
</g>
</g>
</svg>
